/* XPM */
static const char *parakeet_xpm[] = {
/* columns rows colors chars-per-pixel */
"16 16 113 2 ",
"   c black",
".  c #010101",
"X  c #070707",
"o  c #0C0C0C",
"O  c #656965",
"+  c #637F63",
"@  c #667B66",
"#  c #797979",
"$  c gray49",
"%  c #7E7E7E",
"&  c #EA762B",
"*  c #E77A33",
"=  c #3E963E",
"-  c #30B730",
";  c #34B834",
":  c #00CB00",
">  c #00CC00",
",  c #00CD00",
"<  c #04C904",
"1  c #04CB04",
"2  c #05CD05",
"3  c #2CCB2C",
"4  c #2ECA2E",
"5  c #39C939",
"6  c #3ECC3E",
"7  c #588158",
"8  c #589C58",
"9  c #43A243",
"0  c #51BE51",
"q  c #6E806E",
"w  c #6C8A6C",
"e  c #52C852",
"r  c #5FC75F",
"t  c #74C974",
"y  c #DF8143",
"u  c #DA834A",
"i  c #D78855",
"p  c #D88955",
"a  c #CE8F66",
"s  c #D18C60",
"d  c #D18E63",
"f  c #D08E64",
"g  c #C69879",
"h  c #C4997E",
"j  c #C79B7F",
"k  c #838383",
"l  c #838483",
"z  c #848484",
"x  c #898989",
"c  c gray56",
"v  c #909090",
"b  c gray59",
"n  c #9A9A9A",
"m  c #9C9E9C",
"M  c #BF9A81",
"N  c #BB9C89",
"B  c #99B599",
"V  c #B9A498",
"C  c #B8A69B",
"Z  c #BCA699",
"A  c #A0A0A0",
"S  c gray63",
"D  c #A5A5A5",
"F  c #AFAAA7",
"G  c gray67",
"H  c #ACABAB",
"J  c #ACACAC",
"K  c #AFADAD",
"L  c #AEAEAE",
"P  c #B1A6A0",
"I  c #B9AAA0",
"U  c #BAADA6",
"Y  c #B0ACAA",
"T  c #B5ADA9",
"R  c #B6AFAB",
"E  c #B6B0AD",
"W  c #B6B0AE",
"Q  c gray69",
"!  c #B1B0B0",
"~  c #B1B1B1",
"^  c gray70",
"/  c #B5B3B2",
"(  c #B5B3B3",
")  c #B4B4B4",
"_  c #B6B6B6",
"`  c #B7B7B7",
"'  c #B9B9B9",
"]  c gray73",
"[  c #BABEBA",
"{  c #BCBCBC",
"}  c gray",
"|  c gray75",
" . c #C79C80",
".. c #C39F88",
"X. c #C1A18C",
"o. c #81C581",
"O. c #8DC48D",
"+. c #92C492",
"@. c #93C493",
"#. c #A4C3A4",
"$. c #A7C5A7",
"%. c #B5C3B5",
"&. c #B0C8B0",
"*. c #BFC0BF",
"=. c #C1C1C1",
"-. c gray76",
";. c gray77",
":. c #C5C5C5",
">. c #C6C6C6",
",. c #C2C8C2",
"<. c #C2C9C2",
"1. c #C4CAC4",
"2. c None",
/* pixels */
"2.2.2.2.2.> 2 #.| { ] ` ^ ~ L G ",
"2.2.2.> > > e -.| { ' _ ) ~ L G ",
"2.2.> > > > $.-.| { ' ` ) ~ L J ",
"2.> > > > 3 ;.=.| { ' ` ^ ~ L J ",
"2.> > > > t :.=.| { ' n x ~ L J ",
"> > > > 6 &.;.=.} { G X   $ L H ",
"> > > 4 1.,.:.-.| { L o . k Y P ",
"> > 1 B =.<.;.=.| { ] D b ~ C M ",
"> > ; S Q *.>.-.| { ' ` / I h s ",
"> > 8 v A L [ %.| { ' ` E X.f y ",
"> > w z c m 0 +.| { ' ` W  .p & ",
"2.> q % l - > @.| { ] _ U j i * ",
"2.: + # 9 > > O.| { ' ` R ..d u ",
"2.2.7 @ < > > o.} { ] _ ( Z g a ",
"2.2.O = > > > r | { ' _ ) T V N ",
"2.2.2.2.2., > 5 } { ' ` ^ ! K F "
};

#define appicon_xpm parakeet_xpm
